<svg width="56" height="56" viewBox="0 0 56 56" fill="none" xmlns="http://www.w3.org/2000/svg">
<path fill-rule="evenodd" clip-rule="evenodd" d="M35.0569 6.28C35.0569 7.28 35.0569 8.15 35.0569 9.03C35.0569 9.17 35.2869 9.39 35.4369 9.41C39.0633 9.87347 42.5244 11.2044 45.5269 13.29C48.0328 14.9581 50.1674 17.1256 51.7969 19.6568C53.4264 22.188 54.5158 25.0283 54.9969 28C56.5569 37.08 53.7069 44.68 46.5969 50.5C44.2254 52.4564 41.4752 53.9015 38.5188 54.7447C35.5624 55.5879 32.4636 55.811 29.4169 55.4C25.4337 54.9541 21.639 53.4638 18.4169 51.08C17.9034 50.7542 17.5214 50.2575 17.3384 49.6775C17.1554 49.0975 17.1832 48.4715 17.4169 47.91C17.6197 47.3557 18.012 46.891 18.5245 46.5982C19.0369 46.3053 19.6364 46.2033 20.2169 46.31C20.7723 46.4351 21.2921 46.6847 21.7369 47.04C24.2287 48.9485 27.1762 50.1723 30.2869 50.59C34.7673 51.2551 39.3299 50.1387 42.9969 47.48C45.5487 45.7795 47.6051 43.4342 48.9574 40.6821C50.3098 37.9299 50.9099 34.869 50.6969 31.81C50.6031 28.9907 49.826 26.2365 48.4325 23.7839C47.039 21.3313 45.0707 19.2538 42.6969 17.73C39.6123 15.5538 35.916 14.414 32.1415 14.4751C28.367 14.5362 24.7095 15.7951 21.6969 18.07C21.3421 18.3886 20.909 18.6071 20.4419 18.7032C19.9748 18.7993 19.4906 18.7696 19.0388 18.6169C18.587 18.4643 18.1839 18.1943 17.8708 17.8346C17.5577 17.475 17.3458 17.0385 17.2569 16.57C17.1615 16.0968 17.2052 15.606 17.3827 15.1571C17.5601 14.7081 17.8638 14.3201 18.2569 14.04C21.4503 11.5592 25.2474 9.97475 29.2569 9.45C29.6569 9.45 29.7869 9.27 29.7769 8.87C29.7769 8.04 29.7769 7.21 29.7769 6.28C28.8969 6.28 28.0569 6.28 27.2169 6.28C26.7976 6.25456 26.3854 6.15995 25.9969 6C25.4867 5.77156 25.0662 5.3812 24.8004 4.88943C24.5346 4.39766 24.4385 3.83195 24.5269 3.28C24.6116 2.66244 24.9121 2.09477 25.3751 1.67747C25.8382 1.26018 26.4339 1.02019 27.0569 1C30.6869 1 34.3069 1 37.9369 1C38.6118 1.02564 39.251 1.30993 39.722 1.79396C40.193 2.27799 40.4597 2.92467 40.4669 3.6C40.4439 4.30146 40.1515 4.9671 39.6506 5.4587C39.1497 5.9503 38.4787 6.2301 37.7769 6.24C36.8969 6.3 35.9969 6.28 35.0569 6.28Z" fill="#18BF66"/>
<path fill-rule="evenodd" clip-rule="evenodd" d="M32.3869 37.27C31.7482 37.272 31.1157 37.1443 30.5277 36.8947C29.9397 36.6451 29.4086 36.2787 28.9663 35.8178C28.5241 35.3568 28.18 34.811 27.955 34.2132C27.7299 33.6154 27.6285 32.9781 27.6569 32.34C27.6875 31.7067 27.8437 31.0857 28.1165 30.5134C28.3894 29.941 28.7734 29.4287 29.2462 29.0061C29.7189 28.5836 30.271 28.2594 30.8703 28.0523C31.4696 27.8452 32.1042 27.7595 32.7369 27.8C32.9885 27.7965 33.2315 27.7085 33.4269 27.55C35.5369 25.88 37.6369 24.18 39.7369 22.49C40.0044 22.2502 40.3352 22.0925 40.6899 22.0358C41.0445 21.979 41.408 22.0256 41.7369 22.17C42.0679 22.2947 42.3551 22.5136 42.5631 22.7998C42.771 23.0859 42.8905 23.4267 42.9069 23.78C42.9211 24.0758 42.8742 24.3714 42.7693 24.6484C42.6643 24.9254 42.5036 25.1778 42.2969 25.39C40.7069 27.39 39.1369 29.39 37.5369 31.31C37.2713 31.6128 37.1348 32.0077 37.1569 32.41C37.1744 33.0454 37.0637 33.6778 36.8313 34.2694C36.5989 34.861 36.2497 35.3998 35.8044 35.8534C35.3592 36.307 34.8271 36.6663 34.2399 36.9097C33.6527 37.1531 33.0225 37.2756 32.3869 37.27V37.27Z" fill="#18BF66"/>
<path fill-rule="evenodd" clip-rule="evenodd" d="M10.9969 22.17C13.8469 22.17 16.6969 22.17 19.5469 22.17C19.8811 22.1518 20.2151 22.209 20.5242 22.3374C20.8333 22.4659 21.1094 22.6623 21.3323 22.912C21.5551 23.1617 21.7189 23.4584 21.8114 23.78C21.904 24.1017 21.9229 24.44 21.8669 24.77C21.774 25.3315 21.4761 25.8386 21.031 26.1932C20.5858 26.5479 20.025 26.7249 19.4569 26.69H2.45692C2.04717 26.715 1.63819 26.6299 1.27243 26.4435C0.906678 26.2571 0.597474 25.9762 0.376917 25.63C0.147821 25.3011 0.0176113 24.9136 0.00166362 24.5131C-0.0142841 24.1127 0.0846967 23.716 0.286917 23.37C0.469495 22.9988 0.755303 22.6881 1.11005 22.4752C1.46481 22.2624 1.87343 22.1564 2.28692 22.17H10.9969Z" fill="#18BF66"/>
<path fill-rule="evenodd" clip-rule="evenodd" d="M13.0869 30.27C15.2869 30.27 17.4869 30.27 19.6869 30.27C20.1531 30.2746 20.6058 30.4272 20.9797 30.7058C21.3535 30.9844 21.6292 31.3746 21.7669 31.82C21.9246 32.2532 21.9345 32.7265 21.7953 33.166C21.656 33.6055 21.3753 33.9866 20.9969 34.25C20.5469 34.5583 20.0214 34.7381 19.4769 34.77C15.1969 34.77 10.9269 34.77 6.65691 34.77C6.35383 34.782 6.05141 34.7332 5.76752 34.6264C5.48362 34.5197 5.224 34.357 5.00401 34.1482C4.78401 33.9394 4.60809 33.6886 4.48664 33.4107C4.36519 33.1328 4.30068 32.8333 4.29691 32.53C4.29235 32.2243 4.35072 31.9208 4.46838 31.6386C4.58605 31.3564 4.7605 31.1014 4.98089 30.8894C5.20129 30.6775 5.46291 30.5131 5.74952 30.4066C6.03612 30.3 6.34158 30.2535 6.64691 30.27C8.79691 30.27 10.9469 30.27 13.0869 30.27V30.27Z" fill="#18BF66"/>
<path fill-rule="evenodd" clip-rule="evenodd" d="M14.8269 42.85H10.2169C9.61752 42.85 9.04268 42.6119 8.61885 42.1881C8.19502 41.7642 7.95691 41.1894 7.95691 40.59C7.95691 39.9906 8.19502 39.4158 8.61885 38.9919C9.04268 38.5681 9.61752 38.33 10.2169 38.33C13.3169 38.33 16.4236 38.33 19.5369 38.33C19.8337 38.33 20.1276 38.3885 20.4018 38.502C20.676 38.6156 20.9251 38.7821 21.135 38.9919C21.3448 39.2018 21.5113 39.4509 21.6249 39.7251C21.7385 39.9993 21.7969 40.2932 21.7969 40.59C21.7969 40.8868 21.7385 41.1807 21.6249 41.4549C21.5113 41.7291 21.3448 41.9782 21.135 42.1881C20.9251 42.3979 20.676 42.5644 20.4018 42.678C20.1276 42.7915 19.8337 42.85 19.5369 42.85H14.8269Z" fill="#18BF66"/>
</svg>
